<?xml version="1.0" standalone="yes"?>
<svg width="128" height="128">
<path style="stroke:#000000; fill:none;" d="M0 2C7.50639 6.00386 10.5607 12.1698 16.5903 17.7076C19.0207 19.9397 22.2007 19.8961 24.7222 21.7917C28.8033 24.8597 35.2862 34.4414 37.7068 39C39.7153 42.7826 37.6885 46.1152 38.784 49.8156C39.9645 53.8035 49.3613 63.9559 53.0046 66.0617C60.8244 70.5814 65.6835 63.8752 73.0008 62.5949C77.9148 61.7351 83.206 62.7707 88 61.4282C92.6634 60.1223 95.998 56.744 101 56.1744C109.653 55.189 118.452 57.0351 127 55M126 118L123 128"/>
</svg>
