<?xml version="1.0" standalone="yes"?>
<svg width="128" height="128">
<path style="stroke:#000000; fill:none;" d="M59 1C58.299 9.88264 57.1222 19.0642 58.1289 28C58.8716 34.5927 61.7836 40.1319 60.6752 47C59.3813 55.0166 56.9167 61.3142 52.2006 67.9606C50.0225 71.0303 46.2238 73.1703 45.3326 77.0147C43.1214 86.5527 49.5716 95.4161 51.3997 104C52.1816 107.671 50.1514 111.318 50.1836 115C50.2236 119.569 52.77 123.697 54 128M127 26C125.462 35.0817 125.193 45.133 122.7 54C119.788 64.3581 114.796 74.2035 113.289 85C111.409 98.4789 110.403 119.021 99 128"/>
</svg>
