<?xml version="1.0" standalone="yes"?>
<svg width="128" height="128">
<path style="stroke:#000000; fill:none;" d="M5 2C10.5479 4.90238 12.3036 10.6258 17.2099 13.9113C20.7801 16.302 25.3729 16.3935 28.9853 18.8542C33.8761 22.1856 36.3015 27.7687 40.5903 31.7076C43.0207 33.9397 46.2007 33.8961 48.7222 35.7917C52.7382 38.8108 57.4089 46.8016 60.4306 51C63.7806 55.6547 61.3786 59.0684 62.784 63.8156C64.1445 68.4117 74.5025 79.3273 79 80.9668C85.4867 83.3315 88.4315 78.995 94.0394 77.2238C99.6134 75.4632 105.401 76.7924 111 75.6559C116.792 74.48 120.83 70.5087 127 70"/>
</svg>
