<?xml version="1.0" standalone="yes"?>
<svg width="128" height="128">
<path style="stroke:#000000; fill:none;" d="M36 128C36.1231 122.219 38.2907 116.809 37.9097 111C36.9113 95.7766 31.0537 79.9314 38.5579 65C45.9859 50.2202 63.434 54.9589 74.7407 46.2739C84.8139 38.5365 84.1809 30.8712 89.9383 21.0147C92.4133 16.7775 97.6591 15.1427 99.9722 10.9066C101.604 7.91747 100.879 4.79881 103 2M113 2C115.692 7.05628 120.665 12.3176 121.718 18C122.349 21.4094 120.207 24.6571 120.858 27.9105C121.391 30.5768 123.94 32.462 124.853 35.0394C127.128 41.4658 125.11 49.7665 123 56C120.633 54.8341 117.055 51.5247 114.689 54.3765C111.435 58.2978 111.502 72.6362 110.729 78C109.449 86.8846 104.652 93.414 102.598 102C100.529 110.651 102.014 119.8 98 128"/>
</svg>
