<?xml version="1.0" standalone="yes"?>
<svg width="128" height="128">
<path style="stroke:#000000; fill:none;" d="M29 2C36.0972 5.41544 54.4671 0.0519104 58.9869 6.3426C61.3278 9.60076 60.8176 15.1988 61.2847 19C62.6333 29.9745 63.8055 40.9937 64.8302 52C65.1589 55.5302 64.8989 63.6463 59.169 62.2485C55.1292 61.263 52.6559 55.1698 50.6775 52C45.6211 43.899 42.3061 32.2588 35 26C30.4949 41.247 44.1752 51.8493 51.9568 63C56.1147 68.9582 55.4257 74.8676 58.2778 81C61.9408 88.876 68.388 95.112 72.1698 103C76.0642 111.123 83.8691 118.768 80 128"/>
</svg>
