<?xml version="1.0" standalone="yes"?>
<svg width="128" height="128">
<path style="stroke:#000000; fill:none;" d="M0 31C5.2466 35.3588 9.79702 42.2866 15.2099 45.9113C19.5252 48.801 24.8111 48.7468 28.9066 52.3403C32.67 55.6424 34.9028 60.3209 38.5903 63.7076C41.4475 66.3317 45.7154 66.1526 48.1613 69.2392C51.8898 73.9446 57.866 80.5247 60.1914 86C61.6188 89.361 59.8219 92.5658 60.784 95.8156C62.2582 100.796 72.9928 111.897 78 113.272C84.0684 114.939 86.8091 110.876 92.0394 109.224C97.6134 107.463 103.401 108.792 109 107.656C115.599 106.316 119.835 102.149 127 102"/>
</svg>
