<?xml version="1.0" standalone="yes"?>
<svg width="128" height="128">
<path style="stroke:#000000; fill:none;" d="M16 1L41 9.81173L58 2M59 1L58 2M84 2C92.7763 8.39134 108.47 1.11709 115.4 7.65355C118.251 10.3421 117.783 16.4256 118.166 20C119.344 31.0001 120.424 42.0171 121.715 53C122.141 56.6311 122.61 64.3642 117.071 64.3642C112.926 64.3642 110.068 57.9583 108.269 55C103.194 46.6548 99.4471 34.3795 92 28C87.2312 44.1393 102.685 54.9194 110.289 67C113.422 71.9767 112.871 76.8148 114.843 82C117.335 88.5504 122.948 94.359 127 100"/>
</svg>
