<?xml version="1.0" standalone="yes"?>
<svg width="128" height="128">
<path style="stroke:#000000; fill:none;" d="M1 14C17.1768 23.8007 23.6094 10.4298 39 6.42979C49.9741 3.57759 54.7303 13.0845 64.0147 14.7724C70.8144 16.0085 81.6537 12.3238 87.6829 16.108C91.0736 18.2362 90.7508 24.5151 91.0748 28C92.1288 39.3353 93.386 50.6972 94.7145 62C95.1413 65.6311 95.6099 73.3642 90.071 73.3642C85.9259 73.3642 83.0685 66.9583 81.2693 64C76.1938 55.6548 72.4471 43.3795 65 37C60.3629 52.6938 74.9225 63.3975 82.6373 75C86.3528 80.5877 85.6249 86.296 88.2778 92C93.7223 103.707 102.666 117.279 110 128M0 14L1 14"/>
</svg>
