<?xml version="1.0" standalone="yes"?>
<svg width="128" height="128">
<path style="stroke:#000000; fill:none;" d="M119 1L116 15C114.114 14.071 111.356 11.5673 109.123 12.341C105.952 13.4402 106.906 17.4925 106.731 20C106.248 26.9026 104.139 34.099 103.13 41C102.121 47.9003 97.7292 53.2824 95.8758 60C93.8211 67.447 94.8027 75.5198 92.6998 83C88.4346 98.1724 82.3329 111.871 82 128M70 2C63.6511 14.1073 42.2845 9.58136 33.419 21.0154C20.5625 37.5968 33.5124 58.4205 30.6752 76C29.3813 84.0166 26.9167 90.3142 22.2006 96.9606C20.0225 100.03 16.2238 102.17 15.3326 106.015C13.9577 111.945 16.4199 122.646 19 128"/>
</svg>
