<?xml version="1.0" standalone="yes"?>
<svg width="128" height="128">
<path style="stroke:#000000; fill:none;" d="M1 12C6.52551 13.8845 12.9203 19.0181 19 17.6674C28.3114 15.5988 35.9743 5.60367 46 5.04475C55.6789 4.50517 60.4202 12.9344 69.0039 13.8912C75.3683 14.6007 86.0795 11.5911 91.6829 15.108C95.0736 17.2362 94.7508 23.5151 95.0748 27C96.1288 38.3353 97.386 49.6972 98.7145 61C99.1413 64.6311 99.6099 72.3642 94.071 72.3642C89.9259 72.3642 87.0685 65.9583 85.2693 63C80.1938 54.6548 76.4471 42.3795 69 36C64.3629 51.6938 78.9225 62.3975 86.6373 74C90.3528 79.5877 89.6249 85.296 92.2778 91C95.1708 97.2205 100.397 102.088 103.791 108C107.601 114.638 110.154 121.997 115 128"/>
</svg>
