<?xml version="1.0" standalone="yes"?>
<svg width="128" height="128">
<path style="stroke:#000000; fill:none;" d="M1 25C8.82952 27.0481 19.0453 34.6455 27 33.8117C35.4728 32.9237 43.5493 23.6261 52 21.4298C62.9741 18.5776 67.7303 28.0845 77.0147 29.7724C83.8144 31.0085 94.6537 27.3238 100.683 31.108C104.074 33.2362 103.751 39.5151 104.075 43C105.129 54.3353 106.386 65.6972 107.715 77C108.141 80.6311 108.61 88.3642 103.071 88.3642C98.9259 88.3642 96.0685 81.9583 94.2693 79C89.1938 70.6548 85.4471 58.3795 78 52C73.4949 67.247 87.1752 77.8493 94.9568 89C99.1147 94.9582 98.4257 100.868 101.278 107C104.79 114.551 111.074 120.629 115 128M0 25L1 25"/>
</svg>
