<?xml version="1.0" standalone="yes"?>
<svg width="128" height="128">
<path style="stroke:#000000; fill:none;" d="M22 1C24.067 12.1338 24.7809 23.7293 25.8302 35C26.1523 38.4586 26.3436 44.1765 21.9807 45.2485C18.347 46.1413 15.7112 41.4902 14.0895 38.9992C8.96275 31.1243 5.32399 23.2614 1 15M0 14L1 15M0 31C6.58736 36.1393 13.9641 45.0588 16.8665 53C18.3223 56.9831 17.7475 61.1819 19.8002 65C26.5755 77.6026 38.0073 89.0084 42.233 103C43.7089 107.887 39.3313 112.097 40.3611 116.896C41.2482 121.03 47.4174 124.641 50 128"/>
</svg>
