<?xml version="1.0" standalone="yes"?>
<svg width="128" height="128">
<path style="stroke:#000000; fill:none;" d="M9 2C14.4913 5.49963 17.0983 11.4883 22.2099 14.9113C25.7801 17.302 30.3729 17.3935 33.9853 19.8542C38.8761 23.1856 41.3015 28.7687 45.5903 32.7076C48.0207 34.9397 51.2007 34.8961 53.7222 36.7917C57.65 39.7445 61.486 47.0177 64.6566 51C68.715 56.0974 66.2064 59.4866 67.784 64.8156C69.1446 69.4117 79.5024 80.3273 84 81.9668C90.4867 84.3315 93.4315 79.995 99.0394 78.2238C104.613 76.4632 110.401 77.7924 116 76.6559C119.984 75.8471 123.096 73.0524 127 72"/>
</svg>
